Coordinates
version=1
nRows=10
nColumns=22
inDegrees=yes

Units are S.I. units (second, meters, Newtons, ...)
If the header above contains a line with 'inDegrees', this indicates whether rotational values are in degrees (yes) or radians (no).

endheader
time	pelvis_tilt	pelvis_list	pelvis_rotation	pelvis_tx	pelvis_ty	pelvis_tz	hip_flexion_r	hip_adduction_r	hip_rotation_r	knee_angle_r	ankle_angle_r	subtalar_angle_r	hip_flexion_l	hip_adduction_l	hip_rotation_l	knee_angle_l	ankle_angle_l	subtalar_angle_l	lumbar_extension	lumbar_bending	lumbar_rotation
      0.01000000	     -0.96406941	     -3.16453788	     -2.06105849	     -1.19648591	      0.94754201	      0.60782823	      2.75490357	      1.00906046	    -13.87600485	     -9.90854773	      8.58528723	      3.03780071	      5.47350279	     -5.65254651	    -11.50416900	    -18.24605145	     13.41017779	     -1.50306984	     -6.01308894	      1.26469580	     -5.75224923
      0.02000000	     -0.99637709	     -3.18905195	     -2.04857865	     -1.19646279	      0.94753908	      0.60773134	      2.68192809	      1.05166030	    -13.88439127	     -9.71132692	      8.52178590	      3.02571903	      5.49933387	     -5.67100037	    -11.48259180	    -18.22710571	     13.40424479	     -1.57616703	     -5.98029023	      1.28117642	     -5.71065073
      0.03000000	     -1.03098054	     -3.18873660	     -2.05579975	     -1.19646040	      0.94752058	      0.60761911	      2.63996745	      1.05515423	    -13.93396571	     -9.56502540	      8.51445355	      3.02486237	      5.53364887	     -5.66237528	    -11.48041309	    -18.22468969	     13.40353352	     -1.58892814	     -5.95076563	      1.26791160	     -5.61584291
      0.04000000	     -1.08149308	     -3.22371595	     -2.05762837	     -1.19643483	      0.94750620	      0.60753852	      2.56896231	      1.11568123	    -13.90073125	     -9.33157209	      8.39670128	      3.02084090	      5.57909127	     -5.69491869	    -11.47045480	    -18.21071979	     13.38884499	     -1.63258127	     -5.90353731	      1.29090189	     -5.55239208
      0.05000000	     -1.12674862	     -3.24944610	     -2.06940901	     -1.19641410	      0.94748790	      0.60746134	      2.51679216	      1.15844819	    -13.90382763	     -9.14322639	      8.30704711	      3.03721476	      5.62606186	     -5.71944008	    -11.47597511	    -18.21426401	     13.39139932	     -1.66413002	     -5.86767030	      1.30102563	     -5.45505980
      0.06000000	     -1.16355042	     -3.25085185	     -2.08167448	     -1.19638432	      0.94746564	      0.60737802	      2.48326447	      1.16655377	    -13.94533198	     -9.00990531	      8.29142380	      3.04880939	      5.66618604	     -5.71473002	    -11.47015298	    -18.22318780	     13.38856739	     -1.67119254	     -5.84394961	      1.28152786	     -5.35005722
      0.07000000	     -1.21844131	     -3.28793411	     -2.09807574	     -1.19633839	      0.94743735	      0.60734032	      2.44447231	      1.22760479	    -13.88664544	     -8.82718480	      8.14392458	      3.10904845	      5.72240130	     -5.75454657	    -11.47331719	    -18.22918557	     13.37943643	     -1.70045913	     -5.79926603	      1.30498558	     -5.27069029
      0.08000000	     -1.25464649	     -3.31046285	     -2.10863909	     -1.19626973	      0.94742098	      0.60729783	      2.41189099	      1.26429618	    -13.87073198	     -8.70067589	      8.05758306	      3.17811660	      5.75951617	     -5.77764487	    -11.47880941	    -18.23764574	     13.38491138	     -1.72091519	     -5.77592835	      1.31143587	     -5.18875732
      0.09000000	     -1.27465235	     -3.31277525	     -2.10906417	     -1.19619013	      0.94741473	      0.60724039	      2.38892148	      1.27079542	    -13.88856489	     -8.62986926	      8.04315155	      3.19549640	      5.78157077	     -5.77557662	    -11.46937999	    -18.24735711	     13.38320480	     -1.72535412	     -5.77185659	      1.29588636	     -5.11964232
      0.10000000	     -1.29303250	     -3.32030514	     -2.10635606	     -1.19606914	      0.94741404	      0.60720792	      2.36146962	      1.28643368	    -13.88636500	     -8.55705621	      8.01176924	      3.21587541	      5.79387229	     -5.78050566	    -11.45843795	    -18.24724231	     13.37832801	     -1.73188635	     -5.76421538	      1.28630619	     -5.06405100
